<?xml version="1.0" encoding="UTF-8"?>
<svg xmlns="http://www.w3.org/2000/svg" viewBox="0 0 1600 1000" width="1600" height="1000" role="img" aria-label="Exception risk">
<defs>
  <linearGradient id="bguzyv5sl" x1="0" y1="0" x2="1" y2="1"><stop offset="0%" stop-color="#161C22"/><stop offset="100%" stop-color="#0E1216"/></linearGradient>
  <pattern id="griduzyv5sl" width="28" height="28" patternUnits="userSpaceOnUse"><path d="M28 0H0V28" fill="none" stroke="#232B33" stroke-width="0.45" opacity="0.28"/></pattern>
</defs>
<rect width="100%" height="100%" fill="url(#bguzyv5sl)"/>
<rect width="100%" height="100%" fill="url(#griduzyv5sl)"/><rect width="1600" height="46" fill="#0E1216"/>
<line x1="0" y1="46" x2="1600" y2="46" stroke="#232B33"/>
<rect x="20" y="17" width="9" height="9" fill="#1B44C8"/>
<text x="38" y="28" fill="#EDEFF1" font-family="ui-monospace,monospace" font-size="10.5" letter-spacing="0.13em">SLA VIEW</text><rect x="18" y="58" width="504.66666666666663" height="68" fill="#161C22" stroke="#232B33"/>
<text x="28" y="78" fill="#6B7885" font-family="ui-monospace,monospace" font-size="9" letter-spacing="0.1em">PIPELINE</text>
<text x="28" y="108" fill="#EDEFF1" font-family="ui-sans-serif,sans-serif" font-size="21" font-weight="700">24</text><rect x="532.6666666666666" y="58" width="504.66666666666663" height="68" fill="#161C22" stroke="#232B33"/>
<text x="542.6666666666666" y="78" fill="#6B7885" font-family="ui-monospace,monospace" font-size="9" letter-spacing="0.1em">HOT</text>
<text x="542.6666666666666" y="108" fill="#1B44C8" font-family="ui-sans-serif,sans-serif" font-size="21" font-weight="700">5</text><rect x="1047.3333333333333" y="58" width="504.66666666666663" height="68" fill="#161C22" stroke="#232B33"/>
<text x="1057.3333333333333" y="78" fill="#6B7885" font-family="ui-monospace,monospace" font-size="9" letter-spacing="0.1em">CLOSE</text>
<text x="1057.3333333333333" y="108" fill="#EDEFF1" font-family="ui-sans-serif,sans-serif" font-size="21" font-weight="700">18d</text><rect x="18" y="142" width="896.0000000000001" height="828" fill="#161C22" stroke="#232B33"/><rect x="32" y="352.20000000000005" width="24" height="569.8" fill="#1B44C8" opacity="0.55"/><rect x="153.14285714285717" y="606.3" width="24" height="315.70000000000005" fill="#1B44C8" opacity="0.7000000000000001"/><rect x="274.28571428571433" y="475.3999999999999" width="24" height="446.6000000000001" fill="#1B44C8" opacity="0.8500000000000001"/><rect x="395.42857142857144" y="729.5" width="24" height="192.5" fill="#1B44C8" opacity="0.55"/><rect x="516.5714285714287" y="598.5999999999999" width="24" height="323.40000000000003" fill="#1B44C8" opacity="0.7000000000000001"/><rect x="637.7142857142858" y="467.69999999999993" width="24" height="454.30000000000007" fill="#1B44C8" opacity="0.8500000000000001"/><rect x="758.8571428571429" y="721.8" width="24" height="200.20000000000002" fill="#1B44C8" opacity="0.55"/><rect x="960" y="142" width="544" height="828" fill="#161C22" stroke="#232B33"/>
<text x="992" y="168" fill="#6B7885" font-family="ui-monospace,monospace" font-size="9">ACTIVITY</text></svg>