<?xml version="1.0" encoding="UTF-8"?>
<svg xmlns="http://www.w3.org/2000/svg" viewBox="0 0 480 400" width="480" height="400" role="img" aria-label="Driver call update lagging behind TMS load status">
  <defs>
    <linearGradient id="bg2" x1="0" y1="0" x2="0" y2="1">
      <stop offset="0%" stop-color="#12181E"/>
      <stop offset="100%" stop-color="#0E1216"/>
    </linearGradient>
  </defs>
  <rect width="480" height="400" fill="url(#bg2)"/>
  <rect x="16" y="16" width="448" height="36" fill="#12181E" stroke="#232B33"/>
  <circle cx="32" cy="34" r="4" fill="#5C6670"/>
  <circle cx="46" cy="34" r="4" fill="#2A333C"/>
  <circle cx="60" cy="34" r="4" fill="#2A333C"/>
  <text x="76" y="38" fill="#717F8C" font-family="ui-monospace,monospace" font-size="9" letter-spacing=".12em">LOAD #4822 · STATUS</text>
  <rect x="16" y="68" width="280" height="316" rx="6" fill="#161C22" stroke="#232B33"/>
  <text x="32" y="96" fill="#fff" font-family="ui-sans-serif,sans-serif" font-size="14" font-weight="700">DAL ’ PHX</text>
  <text x="32" y="118" fill="#717F8C" font-family="ui-monospace,monospace" font-size="9" letter-spacing=".1em">TMS STATUS</text>
  <rect x="32" y="130" width="120" height="24" rx="2" fill="#1A2129" stroke="#3A444E"/>
  <text x="44" y="146" fill="#8C98A4" font-family="ui-monospace,monospace" font-size="9">DISPATCHED</text>
  <text x="32" y="178" fill="#5C6670" font-family="ui-monospace,monospace" font-size="8">UPDATED · 3H 14M AGO</text>
  <rect x="312" y="68" width="152" height="316" rx="6" fill="#161C22" stroke="#232B33"/>
  <text x="328" y="96" fill="#717F8C" font-family="ui-monospace,monospace" font-size="9" letter-spacing=".1em">DRIVER · CALL</text>
  <rect x="328" y="112" width="120" height="52" rx="8" fill="#1F262E" stroke="#3A444E"/>
  <text x="340" y="134" fill="#DDE2E7" font-family="ui-sans-serif,sans-serif" font-size="10">At dock · unloading</text>
  <text x="340" y="152" fill="#5FD3A0" font-family="ui-monospace,monospace" font-size="8">2 MIN AGO · VERBAL</text>
  <rect x="328" y="180" width="120" height="36" rx="4" fill="#12181E" stroke="#DB9B1F"/>
  <text x="340" y="202" fill="#DB9B1F" font-family="ui-monospace,monospace" font-size="8" letter-spacing=".08em">NOT IN TMS YET</text>
  <path d="M280 200 L312 180" stroke="#DB9B1F" stroke-width="1.5" fill="none" marker-end="url(#arrow)"/>
  <defs><marker id="arrow" markerWidth="6" markerHeight="6" refX="5" refY="3" orient="auto"><path d="M0,0 L6,3 L0,6 Z" fill="#DB9B1F"/></marker></defs>
  <text x="32" y="372" fill="#717F8C" font-family="ui-monospace,monospace" font-size="8" letter-spacing=".1em">SUPERVISOR LEARNS FROM CHAT, NOT THE ROW</text>
</svg>
