<?xml version="1.0" encoding="UTF-8"?>
<svg xmlns="http://www.w3.org/2000/svg" viewBox="0 0 1920 1080" width="1920" height="1080" role="img" aria-label="Unified hub">
<defs>
  <linearGradient id="bguqbsjrx" x1="0" y1="0" x2="1" y2="1"><stop offset="0%" stop-color="#161C22"/><stop offset="100%" stop-color="#0E1216"/></linearGradient>
  <pattern id="griduqbsjrx" width="28" height="28" patternUnits="userSpaceOnUse"><path d="M28 0H0V28" fill="none" stroke="#232B33" stroke-width="0.45" opacity="0.28"/></pattern>
</defs>
<rect width="100%" height="100%" fill="url(#bguqbsjrx)"/>
<rect width="100%" height="100%" fill="url(#griduqbsjrx)"/><rect width="1920" height="46" fill="#0E1216"/>
<line x1="0" y1="46" x2="1920" y2="46" stroke="#232B33"/>
<rect x="20" y="17" width="9" height="9" fill="#1B7A54"/>
<text x="38" y="28" fill="#EDEFF1" font-family="ui-monospace,monospace" font-size="10.5" letter-spacing="0.13em">FINANCESYNC</text><rect x="18" y="58" width="1884" height="154" fill="#161C22" stroke="#232B33"/>
<text x="32" y="76" fill="#6B7885" font-family="ui-monospace,monospace" font-size="9" letter-spacing="0.11em">REF · SOURCE · DELTA · STATE</text><rect x="18" y="90" width="4" height="34" fill="#1B7A54"/>
<text x="34" y="112" fill="#EDEFF1" font-size="13">INV-2291</text>
<text x="691.1999999999999" y="112" fill="#B9C3CC" font-family="ui-monospace,monospace" font-size="11">QB match</text>
<text x="1113.6" y="112" fill="#B9C3CC" font-family="ui-monospace,monospace" font-size="11">, </text>
<rect x="1802" y="98" width="86" height="18" fill="none" stroke="#1B7A54"/>
<text x="1845" y="111" text-anchor="middle" fill="#1B7A54" font-family="ui-monospace,monospace" font-size="8.5">MATCHED</text><line x1="32" y1="124" x2="1888" y2="124" stroke="#232B33"/><rect x="18" y="130" width="4" height="34" fill="transparent"/>
<text x="34" y="152" fill="#B9C3CC" font-size="13">INV-2292</text>
<text x="691.1999999999999" y="152" fill="#B9C3CC" font-family="ui-monospace,monospace" font-size="11">Xero</text>
<text x="1113.6" y="152" fill="#B9C3CC" font-family="ui-monospace,monospace" font-size="11">, </text>
<rect x="1802" y="138" width="86" height="18" fill="none" stroke="#6B7885"/>
<text x="1845" y="151" text-anchor="middle" fill="#6B7885" font-family="ui-monospace,monospace" font-size="8.5">MATCHED</text><line x1="32" y1="164" x2="1888" y2="164" stroke="#232B33"/><rect x="18" y="170" width="4" height="34" fill="transparent"/>
<text x="34" y="192" fill="#B9C3CC" font-size="13">INV-2293</text>
<text x="691.1999999999999" y="192" fill="#B9C3CC" font-family="ui-monospace,monospace" font-size="11">Delta</text>
<text x="1113.6" y="192" fill="#B9C3CC" font-family="ui-monospace,monospace" font-size="11">, </text>
<rect x="1802" y="178" width="86" height="18" fill="none" stroke="#6B7885"/>
<text x="1845" y="191" text-anchor="middle" fill="#6B7885" font-family="ui-monospace,monospace" font-size="8.5">REVIEW</text><rect x="18" y="1012" width="1884" height="40" fill="#161C22" stroke="#232B33"/>
<text x="32" y="1038" fill="#6B7885" font-family="ui-monospace,monospace" font-size="10">AUDIT TRAIL · 2m since sync</text></svg>